<svg xmlns="http://www.w3.org/2000/svg" viewBox="0 0 1242 863" xmlns:v="https://vecta.io/nano"><linearGradient id="A" gradientUnits="userSpaceOnUse" x1="0" y1="431.5" x2="1242" y2="431.5"><stop offset=".01"/><stop offset="1" stop-color="#0b1630"/></linearGradient><path d="M1187 55v372.8H862.1h-55v55V808H434.9V482.8v-55h-55H55V55h1132m55-55H0v482.8h379.9V863h482.2V482.8H1242V0h0z" fill="url(#A)"/><path d="M1192 50v382.8H862.1h-50v50V813H429.9V482.8v-50h-50H50V50h1142m50-50H0v482.8h379.9V863h482.2V482.8H1242V0h0z" fill="#ededed"/><linearGradient id="B" gradientUnits="userSpaceOnUse" x1="621" y1="863" x2="621" y2="0"><stop offset="0" stop-color="#c9c9c9"/><stop offset=".45" stop-color="#a5a5a5"/><stop offset=".741" stop-color="#5e5e5e"/><stop offset="1"/></linearGradient><path d="M1197 45v392.8H862.1h-45v45V818H424.9V482.8v-45h-45H45V45h1152m45-45H0v482.8h379.9V863h482.2V482.8H1242V0h0z" fill="url(#B)"/><path d="M1232 10v462.8H862.1h-10v10V853H389.9V482.8v-10h-10H10V10h1222m10-10H0v482.8h379.9V863h482.2V482.8H1242V0h0z"/><linearGradient id="C" gradientUnits="userSpaceOnUse" x1="182.85" y1="106.319" x2="182.85" y2="297.01"><stop offset=".09"/><stop offset=".513" stop-color="#6d6d6d"/></linearGradient><path d="M151.2 384.1V164.5H98.9v-63.9h167.9v63.9h-52.3v219.6z" fill="url(#C)"/><linearGradient id="D" gradientUnits="userSpaceOnUse" x1="92.9" y1="242.35" x2="272.8" y2="242.35"><stop offset="0"/></linearGradient><path d="M260.8 106.6v51.9h-52.3v219.6h-51.3V158.5h-52.3v-51.9h155.9m12-12h-12-155.9-12v12 51.9 12h12 40.3v207.6 12h12 51.3 12v-12-207.6h40.3 12v-12-51.9-12h0z" fill="url(#D)"/><path d="M260.8 106.6v51.9h-52.3v219.6h-51.3V158.5h-52.3v-51.9h155.9m6-6h-6-155.9-6v6 51.9 6h6 46.3v213.6 6h6 51.3 6v-6-213.6h46.3 6v-6-51.9-6h0z"/><path d="M208.5,280.9c-17.2,4.6-34.3,9.5-51.3,14.7v82.6h51.3V280.9z"/><linearGradient id="E" gradientUnits="userSpaceOnUse" x1="398.3" y1="384.2" x2="398.3" y2="100.6"><stop offset=".458" stop-color="#6d6d6d"/><stop offset=".698" stop-color="#6d6d6d"/><stop offset=".977"/></linearGradient><path d="M348.5 384.1c-31.6 0-57.3-25.7-57.3-57.3V100.6H459v63.9H354.5v37.2h82.3l-36.4 63.9h-45.9v39.6c0 8.3 6.8 15.1 15.1 15.1H469l36.4 63.9H348.5v-.1z" fill="url(#E)"/><linearGradient id="F" gradientUnits="userSpaceOnUse" x1="285.1" y1="242.4" x2="515.6" y2="242.4"><stop offset="0"/></linearGradient><path d="M453 106.7v51.8H348.5v49.2h77.9l-29.5 51.9h-48.4v45.6a21.04 21.04 0 0 0 21.1 21.1h96l29.5 51.9H348.5c-28.4 0-51.3-23-51.3-51.3V106.7H453m12-12h-12-155.9-12v12 220.1c0 34.9 28.4 63.3 63.3 63.3H495h20.6l-10.2-17.9-29.4-51.9-3.5-6.1h-7-96c-5 0-9.1-4.1-9.1-9.1v-33.6h36.4 7l3.5-6.1 29.5-51.9 10.2-17.9h-20.6-65.9v-25.2H453h12v-12-51.8-11.9h0z" fill="url(#F)"/><path d="M453 106.7v51.8H348.5v49.2h77.9l-29.5 51.9h-48.4v45.6a21.04 21.04 0 0 0 21.1 21.1h96l29.5 51.9H348.5c-28.4 0-51.3-23-51.3-51.3V106.7H453m6-6h-6-155.9-6v6 220.1c0 31.6 25.7 57.3 57.3 57.3H495h10.3l-5.1-9-29.5-51.9-1.7-3h-3.5-96c-8.3 0-15.1-6.8-15.1-15.1v-39.6h42.4 3.5l1.7-3 29.5-51.9 5.1-9h-10.3-71.9v-37.2H453h6v-6-51.8-5.9h0z" fill="#020202"/><linearGradient id="G" gradientUnits="userSpaceOnUse" x1="396" y1="378.1" x2="396" y2="241.922"><stop offset="0"/></linearGradient><path d="M297.1 326.8c0 28.3 23 51.3 51.3 51.3H495l-29.5-51.9h-96c-11.7 0-21.1-9.5-21.1-21.1v-45.6h48.4l10.5-18.5c-37.2 5-74 11.3-110.3 18.8v67h.1z" fill="url(#G)"/><linearGradient id="H" gradientUnits="userSpaceOnUse" x1="567.3" y1="384.1" x2="567.3" y2="100.6"><stop offset=".807" stop-color="#6d6d6d"/><stop offset=".896" stop-color="#6d6d6d"/><stop offset=".975"/></linearGradient><path d="M535.6 384.1V164.5h-52.2v-63.9h167.8v63.9H599v219.6z" fill="url(#H)"/><linearGradient id="I" gradientUnits="userSpaceOnUse" x1="477.4" y1="242.35" x2="657.3" y2="242.35"><stop offset="0"/></linearGradient><path d="M645.2 106.6v51.9H593v219.6h-51.3V158.5h-52.3v-51.9h155.8m12-12h-12-155.8-12v12 51.9 12h12 40.3v207.6 12h12H593h12v-12-207.6h40.3 12v-12-51.9l-.1-12h0z" fill="url(#I)"/><path d="M645.2 106.6v51.9H593v219.6h-51.3V158.5h-52.3v-51.9h155.8m6-6h-6-155.8-6v6 51.9 6h6 46.3v213.6 6h6H593h6v-6-213.6h46.3 6v-6-51.9l-.1-6h0z"/><linearGradient id="J" gradientUnits="userSpaceOnUse" x1="567.3" y1="378.1" x2="567.3" y2="227.1"><stop offset="0"/></linearGradient><path d="M541.6 228.8v149.3H593v-151c-17.2.3-34.3.9-51.4 1.7z" fill="url(#J)"/><linearGradient id="K" gradientUnits="userSpaceOnUse" x1="769.15" y1="384.1" x2="769.15" y2="100.6"><stop offset=".563" stop-color="#6d6d6d"/><stop offset=".767" stop-color="#6d6d6d"/><stop offset=".977"/></linearGradient><path d="M843.8 384.1l-97.2-160.9 14.2-19.4 11-15.2a15.05 15.05 0 0 0 3-9.1c0-7.8-6.1-14.4-13.9-15.1h-.1-1.1-1.1-.3-18.6V384h-63.3V100.6h121.8.2a60.42 60.42 0 0 1 56.3 57.6c0 .9.1 1.8.1 2.8 0 12.2-3.6 23.9-10.4 33.9l-1.6 2.3-20.3 28.4 39.4 65.5v93h-18.1 0z" fill="url(#K)"/><linearGradient id="L" gradientUnits="userSpaceOnUse" x1="670.3" y1="242.45" x2="867.7" y2="242.45"><stop offset="0"/></linearGradient><path d="M797.9 106.7c27.5 1.9 49.4 24.2 50.7 51.8 0 .8.1 1.6.1 2.5 0 11.3-3.5 21.8-9.4 30.5l-1.5 2c0 .1-.1.1-.1.1l-22.6 31.6 40.6 67.4v85.3h-8.5l-93.4-154.6 11.8-16.2 11-15.2c2.6-3.5 4.2-7.9 4.2-12.6 0-11.1-8.5-20.2-19.4-21.1-.6-.1-1.2-.1-1.8-.1s-1.2 0-1.8.1h-24.3v219.6h-51.3V106.7h115.7m.4-12h-.4-115.6-12v12 271.5 12h12 51.3 12v-12-144.9l91.3 151.1 3.5 5.8h6.8 8.5 12v-12-85.3-3.3l-1.7-2.9-36.6-60.7 17.9-25.1h0l.2-.3 1.4-2 .1-.1.1-.1c7.5-11 11.4-23.9 11.4-37.3 0-1 0-2.1-.1-3.1-1.5-33.7-28.1-61-61.9-63.2l-.2-.1h0zm-52.6 75.8H758h.6l.6-.1h.5.5.1.1c4.7.4 8.4 4.4 8.4 9.1 0 2.5-1 4.4-1.8 5.4l-.1.1v.1l-11.1 15.2-10.3 14.1v-43.9h.2z" fill="url(#L)"/><path d="M797.9 106.7c27.5 1.9 49.4 24.2 50.7 51.8 0 .8.1 1.6.1 2.5 0 11.3-3.5 21.8-9.4 30.5l-1.5 2c0 .1-.1.1-.1.1l-22.6 31.6 40.6 67.5V378h-8.5l-93.4-154.6 11.8-16.2 11-15.2a21.26 21.26 0 0 0 4.2-12.7c0-11.1-8.5-20.2-19.4-21-.6-.1-1.2-.1-1.8-.1s-1.2 0-1.8.1h-24.3v219.6h-51.3V106.7h115.7m.2-6h-.2-115.6-6v6 271.5 6h6 51.3 6v-6-213.7H758h.3.3 1.1 1.1.1.1c7.8.6 13.9 7.3 13.9 15.1a15.05 15.05 0 0 1-3 9.1h0 0l-11 15.2L749 220l-2.3 3.2 2.1 3.4 93.4 154.6 1.8 2.9h3.4 8.5 6v-6-85.3-1.7l-.9-1.4-38.6-64.1 20.3-28.4h0l.1-.2 1.5-2v-.1-.1c6.8-10 10.4-21.8 10.4-33.9 0-.9 0-1.9-.1-2.8-1.4-30.7-25.6-55.5-56.3-57.5l-.2.1h0z"/><linearGradient id="M" gradientUnits="userSpaceOnUse" x1="769.05" y1="378.1" x2="769.05" y2="228"><stop offset="0"/></linearGradient><path d="M733.7 378.1h-51.3V228l51.3 2.8v147.3zm113.5 0h8.5v-85.3l-32-53.2c-21.3-2.7-42.8-5-64.3-6.9l87.8 145.4z" fill="url(#M)"/><linearGradient id="N" gradientUnits="userSpaceOnUse" x1="918.15" y1="384.1" x2="918.15" y2="100.6"><stop offset=".463" stop-color="#6d6d6d"/><stop offset=".669" stop-color="#6d6d6d"/><stop offset=".876" stop-color="#050505"/><stop offset=".979"/></linearGradient><path d="M886.5 100.6h63.3v283.5h-63.3z" fill="url(#N)"/><linearGradient id="O" gradientUnits="userSpaceOnUse" x1="880.5" y1="242.35" x2="955.8" y2="242.35"><stop offset="0"/><stop offset="1" stop-color="#020202"/></linearGradient><path d="M943.8 106.6v271.5h-51.3V106.6h51.3m12-12h-12-51.3-12v12 271.5 12h12 51.3 12v-12-271.5-12h0z" fill="url(#O)"/><path d="M943.8 106.6v271.5h-51.3V106.6h51.3m6-6h-6-51.3-6v6 271.5 6h6 51.3 6v-6-271.5-6h0z"/><linearGradient id="P" gradientUnits="userSpaceOnUse" x1="918.15" y1="378.1" x2="918.15" y2="249.9"><stop offset="0" stop-color="#050505"/><stop offset=".987"/></linearGradient><path d="M943.8,259.6c-17-3.5-34.1-6.7-51.3-9.7v128.2h51.3V259.6z" fill="url(#P)"/><linearGradient id="Q" gradientUnits="userSpaceOnUse" x1="1057.1" y1="384.2" x2="1057.1" y2="100.5"><stop offset=".41" stop-color="#6d6d6d"/><stop offset=".965"/></linearGradient><path d="M976.1 384.1v-63.9h71.4c7.6 0 13.8-6.2 13.8-13.8 0-2.7-.8-5.3-2.2-7.5l-.1-.1c-.2-.3-.5-.7-.8-1.1l-.3-.4L985 196.6c-7.6-10.4-11.6-22.7-11.6-35.6 0-33.3 27.1-60.5 60.5-60.5 1.4 0 2.7 0 3.9.1h100.5l-38 63.9h-31.2-.3-1.2-1.2-.1c-7.9.6-14.1 7.4-14.1 15.3 0 3.2 1 6.3 2.9 9l73.5 98.5c8 10.5 12.2 23.1 12.2 36.4 0 1 0 1.9-.1 2.9-1.5 32.3-28 57.6-60.4 57.6H976.1v-.1z" fill="url(#Q)"/><linearGradient id="R" gradientUnits="userSpaceOnUse" x1="967.4" y1="242.35" x2="1148.844" y2="242.35"><stop offset="0" stop-color="#5c184f"/><stop offset="0" stop-color="#982f92"/><stop offset=".013"/></linearGradient><path d="M1033.9 106.5l3.7.1h90.1l-30.9 51.9h-27.5c-.6-.1-1.2-.1-1.8-.1s-1.2 0-1.8.1c-11 .9-19.6 10.1-19.6 21.3 0 4.7 1.5 9 4.1 12.5l.3.5 11.2 15 62 83.1c6.9 9.1 11 20.5 11 32.8 0 .9 0 1.8-.1 2.6-1.4 28.9-25.2 51.9-54.4 51.9H982v-51.9h65.4c10.9 0 19.8-8.9 19.8-19.8a19.86 19.86 0 0 0-3.2-10.8c-.4-.6-.8-1.2-1.3-1.8l-.1-.1-11.7-16.1-61.2-84.6a54.1 54.1 0 0 1-10.5-32.1c.3-30.1 24.6-54.5 54.7-54.5m0-12c-36.6 0-66.5 29.8-66.5 66.5 0 14.2 4.4 27.8 12.8 39.2l61.2 84.6 11.7 16.1.1.1.1.1.1.1.2.2.2.2c.2.3.3.4.4.5l.1.1.1.1a7.87 7.87 0 0 1 1.2 4.2c0 4.3-3.5 7.8-7.8 7.8h-65.4-12v12 51.9 12h12 98.2c35.6 0 64.7-27.8 66.4-63.3 0-1 .1-2.1.1-3.2 0-14.6-4.6-28.4-13.4-40l-62-83.1-11.2-15h0 0l-.3-.3c-.8-1.1-1.7-3-1.7-5.4 0-4.8 3.8-8.9 8.6-9.3h.1.1.5.6l.6.1h.6 27.5 6.8l3.5-5.9 30.9-51.8 10.8-18.1H1128h-89.7a23.2 23.2 0 0 0-4.4-.4h0z" fill="url(#R)"/><path d="M1033.9 106.5l3.7.1h90.1l-30.9 51.9h-27.5c-.6-.1-1.2-.1-1.8-.1s-1.2 0-1.8.1c-11 .9-19.6 10.1-19.6 21.3 0 4.7 1.5 9 4.1 12.5l.3.5 11.2 15 62 83.1c6.9 9.1 11 20.5 11 32.8 0 .9 0 1.8-.1 2.6-1.4 28.9-25.2 51.9-54.4 51.9H982v-51.9h65.4c10.9 0 19.8-8.9 19.8-19.8a19.86 19.86 0 0 0-3.2-10.8c-.4-.6-.8-1.2-1.3-1.8l-.1-.1-11.7-16.1-61.2-84.6a54.1 54.1 0 0 1-10.5-32.1c.3-30.1 24.6-54.5 54.7-54.5m0-6c-33.3 0-60.5 27.1-60.5 60.5 0 12.9 4 25.3 11.6 35.7l61.2 84.6 11.7 16.1h0 0l.1.1.1.1.1.1.8 1.1v.1.1c1.5 2.2 2.2 4.8 2.2 7.5 0 7.6-6.2 13.8-13.8 13.8H982h-6v6 51.9 6h6 98.2c32.3 0 58.9-25.3 60.4-57.6 0-1 .1-1.9.1-2.9 0-13.3-4.2-25.9-12.2-36.5l-62-83.1-11.2-15-.3-.4c-1.9-2.6-2.9-5.7-2.9-9 0-7.9 6.2-14.6 14.1-15.3h.1.1 1.2 1.2.3.3 27.5 3.4l1.7-2.9 30.9-51.8 5.4-9.1h-10.6-89.9c-1.2 0-2.5-.1-3.9-.1h0z"/><path d="M1062.8 293.8h0c.5.6.9 1.2 1.3 1.8a19.86 19.86 0 0 1 3.2 10.8c0 11-8.9 19.8-19.8 19.8h-65.4v51.9h98.2c29.2 0 53-23 54.4-51.9 0-.9.1-1.7.1-2.6 0-4.3-.5-8.5-1.4-12.5-24.7-8.4-49.7-16.2-74.9-23.4l4.3 6.1z"/></svg>