<svg version="1.1" id="Layer_1" xmlns="http://www.w3.org/2000/svg" xmlns:xlink="http://www.w3.org/1999/xlink" x="0px" y="0px" viewBox="0 0 324 324" style="enable-background:new 0 0 324 324;" xml:space="preserve"> <g id="H2e19a_1_"> <path class="transition" d="M162.1,324C72.8,323.9-0.1,251.2,0,162.3C0.1,71.9,72.8-0.1,163.9,0C251.9,0.1,324.1,73.8,324,163.2 C323.9,251.3,250.7,324.1,162.1,324z M281.8,242.3c37-52.6,35.2-135.1-23.1-187.9c-57-51.6-144.4-49.3-199,5.4 C4.9,114.6,7.9,194.7,41.8,241.5c0.3-0.8,0.7-1.6,0.9-2.4c5-24.1,19.1-40.9,40.7-51.9c6.2-3.2,12.4-6.4,18.5-9.6 c-20.8-36.5-7.4-73.5,16-92.2c25-20,60.3-20.6,86.3-1.5c22.3,16.4,40.2,53.6,17.7,94.1C251.2,190.4,276.4,206.8,281.8,242.3z M161,306.9c36.5-0.1,70.2-12.8,99.1-38.5c5-4.5,7.2-8.8,6.1-15.8c-2.4-14.6-5.4-29.3-17.5-38.5c-11.1-8.5-24-14.7-36.3-21.6 c-1-0.5-3.4,0.5-4.6,1.5c-27.4,22.7-64.4,22.6-91.7-0.1c-1.3-1-4.1-1.6-5.5-0.9c-8.1,3.9-16.1,8-23.9,12.3 c-14.5,7.9-23.3,20.1-26.8,36.1c-1.1,5.2-2.2,10.5-2.6,15.7c-0.2,2.3,0.8,5.3,2.4,6.9C87.1,291.4,120.4,305.2,161,306.9z M215.1,140.3c0-29.2-23.8-53-53.1-53.1c-29.1-0.1-53,23.8-53.2,53c-0.1,29.4,24,53.6,53.3,53.3 C191.6,193.2,215.2,169.6,215.1,140.3z"> </path> </g> </svg>