<svg version="1.1" xmlns="http://www.w3.org/2000/svg" xmlns:xlink="http://www.w3.org/1999/xlink" x="0px" y="0px" viewBox="0 0 328 327.9" style="enable-background:new 0 0 328 327.9;" xml:space="preserve"> <g id="ox3Nhy_1_"> <path class="transition" d="M228.2,187c9.7,1.8,16.1,7.7,22.4,14.1c22.5,22.7,45.3,45.2,67.8,67.9c12.4,12.4,12.8,31.3,1.4,44.3 c-10.8,12.3-29.6,14.2-43,4.3c-1.7-1.3-3.3-2.8-4.8-4.3c-21.7-21.7-43.3-43.4-65.1-65c-6.9-6.8-14-13.4-15.8-24.1 c-32.1,19.2-65.7,24.1-101.1,13.5c-28.5-8.6-50.9-25.9-66.9-50.9c-32-50-23-115.2,21.2-155.6c42.5-38.9,108.4-41.6,154.6-6.7 C246,60.1,264,128.5,228.2,187z M21.2,121.6c0.1,57.2,46.8,104,103.9,104.2c58.3,0.2,104.8-46.8,104.7-105.8 c-0.1-56.8-47.7-103.3-105.6-103C67.8,17.3,21.1,64.7,21.2,121.6z M223.4,202.8c-6.7,1-12,4.4-14.3,10c-2.7,6.6-0.9,12.4,4,17.3 c23.8,23.8,47.5,47.6,71.4,71.3c6.8,6.8,15.8,6.9,21.8,0.9c6.1-6.1,6.2-14.9-0.6-21.8c-23.8-24-47.7-47.9-71.8-71.6 C231.1,206.1,226.9,204.8,223.4,202.8z"/> <path class="transition" d="M44.9,118.2c2.2-9.3,4-18.7,6.6-27.9c1.6-5.6,6.4-7.9,11.2-6.3c4.6,1.5,6.9,6.5,5,11.9c-7.6,21.3-5.1,41.1,7.7,59.7 c3.3,4.7,2.4,10-1.8,12.7c-4.3,2.8-9.1,1.7-12.5-3.1c-9.9-14-14.9-29.6-15-46.7C45.7,118.4,45.3,118.3,44.9,118.2z"/> </g> </svg>